<svg xmlns="http://www.w3.org/2000/svg" xmlns:xlink="http://www.w3.org/1999/xlink" data-name="Grafik mit Verlauf" viewBox="0 0 1240 668.78">
  <defs>
    <linearGradient id="a" x1="200.34" x2="1039.66" y1="334.39" y2="334.39" gradientUnits="userSpaceOnUse">
      <stop offset="0" stop-color="#1faf98"/>
      <stop offset="1" stop-color="#36bcee"/>
    </linearGradient>
    <linearGradient id="b" x1="269.51" x2="990.22" y1="341.34" y2="341.34" xlink:href="#a"/>
  </defs>
  <path fill="none" stroke="url(#a)" stroke-linecap="round" stroke-linejoin="round" stroke-width="3" d="M718.24 84.32h16.29l3.53 4.91h37.48l5.69 17.47H725.7zm13-19.82h-7.46v19.82m57.5 22.38V69.41h-8.44m0 19.82V64.5l-12.21-11.57h-29.44v31.39m9.22-13.24h23.75m-23.75 5.2h23.75m-3.53-23.35V64.5h12.16m208.46 212.65h55.54l-5.7-17.47h-37.48l-3.53-4.9h-16.29zm5.49-42.15h-7.45v19.82m57.5 22.37v-37.33h-8.44m0 19.82V235l-12.17-11.58h-29.44v31.4m9.26-13.29h23.74m-23.74 5.2h23.74m-3.53-23.35V235h12.17m-576.52 42.15h55.54l-5.69-17.47h-37.48l-3.54-4.9h-16.28zm5.5-42.19h-7.46v19.82m57.5 22.37v-37.29H499m0 19.82V235l-12.17-11.58h-29.47v31.4m9.22-13.25h23.75m-23.75 5.2h23.75m-3.54-23.35V235H499m228.83 211.2h55.53l-5.69-17.47h-37.48l-3.53-4.9h-16.29zm5.49-42.2h-7.45v19.82m57.49 22.37v-37.28h-8.43m0 19.82V404l-12.17-11.58h-29.44v31.4m9.23-13.25h23.74m-23.74 5.2h23.74m-3.53-23.35V404h12.17M477.39 615.86h55.53l-5.69-17.47h-37.48l-3.53-4.9h-16.29zm5.49-42.19h-7.46v19.82m57.5 22.37v-37.29h-8.44m0 19.82v-24.72l-12.16-11.58h-29.44v31.4m9.22-13.25h23.75m-23.75 5.2h23.75m-3.53-23.35v11.58h12.16m458.14 42.19h55.54l-5.69-17.47H995l-3.53-4.9h-16.31zm5.5-42.19h-7.46v19.82m57.5 22.37v-37.29h-8.44m0 19.82v-24.72l-12.17-11.58h-29.43v31.4m9.22-13.25h23.74m-23.74 5.2h23.74m-3.53-23.35v11.58h12.17M209.3 446.2h55.54l-5.7-17.47h-37.48l-3.53-4.9h-16.29zm5.49-42.2h-7.45v19.82m57.5 22.37v-37.28h-8.44m0 19.82V404l-12.17-11.58h-29.44v31.4m9.21-13.24h23.74m-23.74 5.2h23.74m-3.53-23.35V404h12.19"/>
  <path fill="url(#b)" d="M688.44 391.91l2.17-3.92-166.31-92.21a1.5 1.5 0 011.45-2.63l166.31 92.21 2.18-3.92 6.16 10.26zm301.78 152.78l-6.48-10.06-2 4L812 451.52a1.5 1.5 0 10-1.37 2.67l169.68 87.1-2.05 4zM429.75 292.18a1.51 1.51 0 00-2.07-.48l-150.17 93.83-2.38-3.8-5.62 10.57 12-.42-2.37-3.8 150.17-93.83a1.51 1.51 0 00.44-2.07zm278.34 170.48a1.5 1.5 0 00-2.07-.47l-156.1 97.53-2.38-3.8-5.62 10.57 12-.42-2.37-3.8 156.1-97.54a1.5 1.5 0 00.44-2.07zm-5.27-343.78a1.5 1.5 0 00-2.07-.47l-159.84 99.87-2.37-3.8-5.62 10.52 12-.41-2.38-3.81L702.34 121a1.5 1.5 0 00.48-2.12zM968.29 225l-5.65-10.55-2.36 3.81-164.1-101.84a1.5 1.5 0 00-1.58 2.58l164.09 101.85-2.36 3.81z"/>
</svg>